<?xml version="1.0" encoding="UTF-8" standalone="no"?>
<!DOCTYPE svg PUBLIC "-//W3C//DTD SVG 1.1//EN"
 "http://www.w3.org/Graphics/SVG/1.1/DTD/svg11.dtd">
<!-- Generated by graphviz version 2.47.0 (20210316.0004)
 -->
<!-- Title: dependencies Pages: 1 -->
<svg width="517pt" height="211pt"
 viewBox="0.00 0.00 517.00 211.00" xmlns="http://www.w3.org/2000/svg" xmlns:xlink="http://www.w3.org/1999/xlink">
<g id="graph0" class="graph" transform="scale(1 1) rotate(0) translate(4 207)">
<title>dependencies</title>
<polygon fill="white" stroke="transparent" points="-4,4 -4,-207 513,-207 513,4 -4,4"/>
<text text-anchor="start" x="233.51" y="-42.4" font-family="Times-12" font-weight="bold" font-size="14.00">Legend</text>
<polygon fill="#ffffb3" stroke="transparent" points="20.5,-10 20.5,-30 40.5,-30 40.5,-10 20.5,-10"/>
<text text-anchor="start" x="44.13" y="-15.4" font-family="Times-12" font-size="14.00"> &#160;Declarations</text>
<polygon fill="#8dd3c7" stroke="transparent" points="133.5,-10 133.5,-30 153.5,-30 153.5,-10 133.5,-10"/>
<text text-anchor="start" x="157.23" y="-15.4" font-family="Times-12" font-size="14.00"> &#160;Module</text>
<polygon fill="#80b1d3" stroke="transparent" points="219.5,-10 219.5,-30 239.5,-30 239.5,-10 219.5,-10"/>
<text text-anchor="start" x="243.28" y="-15.4" font-family="Times-12" font-size="14.00"> &#160;Bootstrap</text>
<polygon fill="#fdb462" stroke="transparent" points="316.5,-10 316.5,-30 336.5,-30 336.5,-10 316.5,-10"/>
<text text-anchor="start" x="340.17" y="-15.4" font-family="Times-12" font-size="14.00"> &#160;Providers</text>
<polygon fill="#fb8072" stroke="transparent" points="412.5,-10 412.5,-30 432.5,-30 432.5,-10 412.5,-10"/>
<text text-anchor="start" x="436.23" y="-15.4" font-family="Times-12" font-size="14.00"> &#160;Exports</text>
<g id="clust1" class="cluster">
<title>cluster_HeroesModule</title>
<polygon fill="none" stroke="black" stroke-dasharray="1,5" points="8,-70 8,-195 501,-195 501,-70 8,-70"/>
</g>
<g id="clust5" class="cluster">
<title>cluster_HeroesModule_imports</title>
<polygon fill="none" stroke="black" points="333,-78 333,-130 493,-130 493,-78 333,-78"/>
</g>
<g id="clust2" class="cluster">
<title>cluster_HeroesModule_declarations</title>
<polygon fill="none" stroke="black" points="16,-78 16,-130 325,-130 325,-78 16,-78"/>
</g>
<!-- HeroDetailComponent -->
<g id="node1" class="node">
<title>HeroDetailComponent</title>
<polygon fill="#ffffb3" stroke="black" points="316.52,-122 173.48,-122 173.48,-86 316.52,-86 316.52,-122"/>
<text text-anchor="middle" x="245" y="-99.8" font-family="Times,serif" font-size="14.00">HeroDetailComponent</text>
</g>
<!-- HeroesModule -->
<g id="node3" class="node">
<title>HeroesModule</title>
<polygon fill="#8dd3c7" stroke="black" points="294.69,-187 291.69,-191 270.69,-191 267.69,-187 195.31,-187 195.31,-151 294.69,-151 294.69,-187"/>
<text text-anchor="middle" x="245" y="-164.8" font-family="Times,serif" font-size="14.00">HeroesModule</text>
</g>
<!-- HeroDetailComponent&#45;&gt;HeroesModule -->
<g id="edge1" class="edge">
<title>HeroDetailComponent&#45;&gt;HeroesModule</title>
<path fill="none" stroke="black" d="M245,-122.11C245,-122.11 245,-140.99 245,-140.99"/>
<polygon fill="black" stroke="black" points="241.5,-140.99 245,-150.99 248.5,-140.99 241.5,-140.99"/>
</g>
<!-- HeroListComponent -->
<g id="node2" class="node">
<title>HeroListComponent</title>
<polygon fill="#ffffb3" stroke="black" points="155.59,-122 24.41,-122 24.41,-86 155.59,-86 155.59,-122"/>
<text text-anchor="middle" x="90" y="-99.8" font-family="Times,serif" font-size="14.00">HeroListComponent</text>
</g>
<!-- HeroListComponent&#45;&gt;HeroesModule -->
<g id="edge2" class="edge">
<title>HeroListComponent&#45;&gt;HeroesModule</title>
<path fill="none" stroke="black" d="M90,-122.11C90,-141.34 90,-169 90,-169 90,-169 185.1,-169 185.1,-169"/>
<polygon fill="black" stroke="black" points="185.1,-172.5 195.1,-169 185.1,-165.5 185.1,-172.5"/>
</g>
<!-- HeroesRoutingModule -->
<g id="node4" class="node">
<title>HeroesRoutingModule</title>
<polygon fill="#8dd3c7" stroke="black" points="485.31,-122 482.31,-126 461.31,-126 458.31,-122 340.69,-122 340.69,-86 485.31,-86 485.31,-122"/>
<text text-anchor="middle" x="413" y="-99.8" font-family="Times,serif" font-size="14.00">HeroesRoutingModule</text>
</g>
<!-- HeroesRoutingModule&#45;&gt;HeroesModule -->
<g id="edge3" class="edge">
<title>HeroesRoutingModule&#45;&gt;HeroesModule</title>
<path fill="none" stroke="black" d="M413,-122.11C413,-141.34 413,-169 413,-169 413,-169 304.95,-169 304.95,-169"/>
<polygon fill="black" stroke="black" points="304.95,-165.5 294.95,-169 304.95,-172.5 304.95,-165.5"/>
</g>
</g>
</svg>
