<?xml version="1.0" encoding="UTF-8" standalone="no"?>
<!DOCTYPE svg PUBLIC "-//W3C//DTD SVG 1.1//EN"
 "http://www.w3.org/Graphics/SVG/1.1/DTD/svg11.dtd">
<!-- Generated by graphviz version 2.47.0 (20210316.0004)
 -->
<!-- Title: dependencies Pages: 1 -->
<svg width="907pt" height="211pt"
 viewBox="0.00 0.00 907.00 211.00" xmlns="http://www.w3.org/2000/svg" xmlns:xlink="http://www.w3.org/1999/xlink">
<g id="graph0" class="graph" transform="scale(1 1) rotate(0) translate(4 207)">
<title>dependencies</title>
<polygon fill="white" stroke="transparent" points="-4,4 -4,-207 903,-207 903,4 -4,4"/>
<text text-anchor="start" x="428.51" y="-42.4" font-family="Times-12" font-weight="bold" font-size="14.00">Legend</text>
<polygon fill="#ffffb3" stroke="transparent" points="215.5,-10 215.5,-30 235.5,-30 235.5,-10 215.5,-10"/>
<text text-anchor="start" x="239.13" y="-15.4" font-family="Times-12" font-size="14.00"> &#160;Declarations</text>
<polygon fill="#8dd3c7" stroke="transparent" points="328.5,-10 328.5,-30 348.5,-30 348.5,-10 328.5,-10"/>
<text text-anchor="start" x="352.23" y="-15.4" font-family="Times-12" font-size="14.00"> &#160;Module</text>
<polygon fill="#80b1d3" stroke="transparent" points="414.5,-10 414.5,-30 434.5,-30 434.5,-10 414.5,-10"/>
<text text-anchor="start" x="438.28" y="-15.4" font-family="Times-12" font-size="14.00"> &#160;Bootstrap</text>
<polygon fill="#fdb462" stroke="transparent" points="511.5,-10 511.5,-30 531.5,-30 531.5,-10 511.5,-10"/>
<text text-anchor="start" x="535.17" y="-15.4" font-family="Times-12" font-size="14.00"> &#160;Providers</text>
<polygon fill="#fb8072" stroke="transparent" points="607.5,-10 607.5,-30 627.5,-30 627.5,-10 607.5,-10"/>
<text text-anchor="start" x="631.23" y="-15.4" font-family="Times-12" font-size="14.00"> &#160;Exports</text>
<g id="clust1" class="cluster">
<title>cluster_AdminModule</title>
<polygon fill="none" stroke="black" stroke-dasharray="1,5" points="8,-70 8,-195 891,-195 891,-70 8,-70"/>
</g>
<g id="clust7" class="cluster">
<title>cluster_AdminModule_imports</title>
<polygon fill="none" stroke="black" points="723,-78 723,-130 883,-130 883,-78 723,-78"/>
</g>
<g id="clust2" class="cluster">
<title>cluster_AdminModule_declarations</title>
<polygon fill="none" stroke="black" points="16,-78 16,-130 715,-130 715,-78 16,-78"/>
</g>
<!-- AdminComponent -->
<g id="node1" class="node">
<title>AdminComponent</title>
<polygon fill="#ffffb3" stroke="black" points="707.22,-122 586.78,-122 586.78,-86 707.22,-86 707.22,-122"/>
<text text-anchor="middle" x="647" y="-99.8" font-family="Times,serif" font-size="14.00">AdminComponent</text>
</g>
<!-- AdminModule -->
<g id="node5" class="node">
<title>AdminModule</title>
<polygon fill="#8dd3c7" stroke="black" points="527.44,-187 524.44,-191 503.44,-191 500.44,-187 428.56,-187 428.56,-151 527.44,-151 527.44,-187"/>
<text text-anchor="middle" x="478" y="-164.8" font-family="Times,serif" font-size="14.00">AdminModule</text>
</g>
<!-- AdminComponent&#45;&gt;AdminModule -->
<g id="edge1" class="edge">
<title>AdminComponent&#45;&gt;AdminModule</title>
<path fill="none" stroke="black" d="M647,-122.02C647,-139.37 647,-163 647,-163 647,-163 537.34,-163 537.34,-163"/>
<polygon fill="black" stroke="black" points="537.34,-159.5 527.34,-163 537.34,-166.5 537.34,-159.5"/>
</g>
<!-- AdminDashboardComponent -->
<g id="node2" class="node">
<title>AdminDashboardComponent</title>
<polygon fill="#ffffb3" stroke="black" points="568.36,-122 387.64,-122 387.64,-86 568.36,-86 568.36,-122"/>
<text text-anchor="middle" x="478" y="-99.8" font-family="Times,serif" font-size="14.00">AdminDashboardComponent</text>
</g>
<!-- AdminDashboardComponent&#45;&gt;AdminModule -->
<g id="edge2" class="edge">
<title>AdminDashboardComponent&#45;&gt;AdminModule</title>
<path fill="none" stroke="black" d="M478,-122.11C478,-122.11 478,-140.99 478,-140.99"/>
<polygon fill="black" stroke="black" points="474.5,-140.99 478,-150.99 481.5,-140.99 474.5,-140.99"/>
</g>
<!-- ManageCrisesComponent -->
<g id="node3" class="node">
<title>ManageCrisesComponent</title>
<polygon fill="#ffffb3" stroke="black" points="369.91,-122 208.09,-122 208.09,-86 369.91,-86 369.91,-122"/>
<text text-anchor="middle" x="289" y="-99.8" font-family="Times,serif" font-size="14.00">ManageCrisesComponent</text>
</g>
<!-- ManageCrisesComponent&#45;&gt;AdminModule -->
<g id="edge3" class="edge">
<title>ManageCrisesComponent&#45;&gt;AdminModule</title>
<path fill="none" stroke="black" d="M289,-122.02C289,-139.37 289,-163 289,-163 289,-163 418.34,-163 418.34,-163"/>
<polygon fill="black" stroke="black" points="418.34,-166.5 428.34,-163 418.34,-159.5 418.34,-166.5"/>
</g>
<!-- ManageHeroesComponent -->
<g id="node4" class="node">
<title>ManageHeroesComponent</title>
<polygon fill="#ffffb3" stroke="black" points="190.06,-122 23.94,-122 23.94,-86 190.06,-86 190.06,-122"/>
<text text-anchor="middle" x="107" y="-99.8" font-family="Times,serif" font-size="14.00">ManageHeroesComponent</text>
</g>
<!-- ManageHeroesComponent&#45;&gt;AdminModule -->
<g id="edge4" class="edge">
<title>ManageHeroesComponent&#45;&gt;AdminModule</title>
<path fill="none" stroke="black" d="M107,-122.28C107,-143.32 107,-175 107,-175 107,-175 418.73,-175 418.73,-175"/>
<polygon fill="black" stroke="black" points="418.73,-178.5 428.73,-175 418.73,-171.5 418.73,-178.5"/>
</g>
<!-- AdminRoutingModule -->
<g id="node6" class="node">
<title>AdminRoutingModule</title>
<polygon fill="#8dd3c7" stroke="black" points="874.56,-122 871.56,-126 850.56,-126 847.56,-122 731.44,-122 731.44,-86 874.56,-86 874.56,-122"/>
<text text-anchor="middle" x="803" y="-99.8" font-family="Times,serif" font-size="14.00">AdminRoutingModule</text>
</g>
<!-- AdminRoutingModule&#45;&gt;AdminModule -->
<g id="edge5" class="edge">
<title>AdminRoutingModule&#45;&gt;AdminModule</title>
<path fill="none" stroke="black" d="M803,-122.28C803,-143.32 803,-175 803,-175 803,-175 537.36,-175 537.36,-175"/>
<polygon fill="black" stroke="black" points="537.36,-171.5 527.36,-175 537.36,-178.5 537.36,-171.5"/>
</g>
</g>
</svg>
