<?xml version="1.0" encoding="UTF-8" standalone="no"?>
<!DOCTYPE svg PUBLIC "-//W3C//DTD SVG 1.1//EN"
 "http://www.w3.org/Graphics/SVG/1.1/DTD/svg11.dtd">
<!-- Generated by graphviz version 2.47.0 (20210316.0004)
 -->
<!-- Title: dependencies Pages: 1 -->
<svg width="929pt" height="211pt"
 viewBox="0.00 0.00 929.00 211.00" xmlns="http://www.w3.org/2000/svg" xmlns:xlink="http://www.w3.org/1999/xlink">
<g id="graph0" class="graph" transform="scale(1 1) rotate(0) translate(4 207)">
<title>dependencies</title>
<polygon fill="white" stroke="transparent" points="-4,4 -4,-207 925,-207 925,4 -4,4"/>
<text text-anchor="start" x="439.51" y="-42.4" font-family="Times-12" font-weight="bold" font-size="14.00">Legend</text>
<polygon fill="#ffffb3" stroke="transparent" points="226.5,-10 226.5,-30 246.5,-30 246.5,-10 226.5,-10"/>
<text text-anchor="start" x="250.13" y="-15.4" font-family="Times-12" font-size="14.00"> &#160;Declarations</text>
<polygon fill="#8dd3c7" stroke="transparent" points="339.5,-10 339.5,-30 359.5,-30 359.5,-10 339.5,-10"/>
<text text-anchor="start" x="363.23" y="-15.4" font-family="Times-12" font-size="14.00"> &#160;Module</text>
<polygon fill="#80b1d3" stroke="transparent" points="425.5,-10 425.5,-30 445.5,-30 445.5,-10 425.5,-10"/>
<text text-anchor="start" x="449.28" y="-15.4" font-family="Times-12" font-size="14.00"> &#160;Bootstrap</text>
<polygon fill="#fdb462" stroke="transparent" points="522.5,-10 522.5,-30 542.5,-30 542.5,-10 522.5,-10"/>
<text text-anchor="start" x="546.17" y="-15.4" font-family="Times-12" font-size="14.00"> &#160;Providers</text>
<polygon fill="#fb8072" stroke="transparent" points="618.5,-10 618.5,-30 638.5,-30 638.5,-10 618.5,-10"/>
<text text-anchor="start" x="642.23" y="-15.4" font-family="Times-12" font-size="14.00"> &#160;Exports</text>
<g id="clust1" class="cluster">
<title>cluster_CrisisCenterModule</title>
<polygon fill="none" stroke="black" stroke-dasharray="1,5" points="8,-70 8,-195 913,-195 913,-70 8,-70"/>
</g>
<g id="clust2" class="cluster">
<title>cluster_CrisisCenterModule_declarations</title>
<polygon fill="none" stroke="black" points="214,-78 214,-130 905,-130 905,-78 214,-78"/>
</g>
<g id="clust7" class="cluster">
<title>cluster_CrisisCenterModule_imports</title>
<polygon fill="none" stroke="black" points="16,-78 16,-130 206,-130 206,-78 16,-78"/>
</g>
<!-- CrisisCenterComponent -->
<g id="node1" class="node">
<title>CrisisCenterComponent</title>
<polygon fill="#ffffb3" stroke="black" points="896.82,-122 745.18,-122 745.18,-86 896.82,-86 896.82,-122"/>
<text text-anchor="middle" x="821" y="-99.8" font-family="Times,serif" font-size="14.00">CrisisCenterComponent</text>
</g>
<!-- CrisisCenterModule -->
<g id="node5" class="node">
<title>CrisisCenterModule</title>
<polygon fill="#8dd3c7" stroke="black" points="514.54,-187 511.54,-191 490.54,-191 487.54,-187 385.46,-187 385.46,-151 514.54,-151 514.54,-187"/>
<text text-anchor="middle" x="450" y="-164.8" font-family="Times,serif" font-size="14.00">CrisisCenterModule</text>
</g>
<!-- CrisisCenterComponent&#45;&gt;CrisisCenterModule -->
<g id="edge1" class="edge">
<title>CrisisCenterComponent&#45;&gt;CrisisCenterModule</title>
<path fill="none" stroke="black" d="M821,-122.28C821,-143.32 821,-175 821,-175 821,-175 524.62,-175 524.62,-175"/>
<polygon fill="black" stroke="black" points="524.62,-171.5 514.62,-175 524.62,-178.5 524.62,-171.5"/>
</g>
<!-- CrisisCenterHomeComponent -->
<g id="node2" class="node">
<title>CrisisCenterHomeComponent</title>
<polygon fill="#ffffb3" stroke="black" points="727.53,-122 542.47,-122 542.47,-86 727.53,-86 727.53,-122"/>
<text text-anchor="middle" x="635" y="-99.8" font-family="Times,serif" font-size="14.00">CrisisCenterHomeComponent</text>
</g>
<!-- CrisisCenterHomeComponent&#45;&gt;CrisisCenterModule -->
<g id="edge2" class="edge">
<title>CrisisCenterHomeComponent&#45;&gt;CrisisCenterModule</title>
<path fill="none" stroke="black" d="M635,-122.02C635,-139.37 635,-163 635,-163 635,-163 524.7,-163 524.7,-163"/>
<polygon fill="black" stroke="black" points="524.7,-159.5 514.7,-163 524.7,-166.5 524.7,-159.5"/>
</g>
<!-- CrisisDetailComponent -->
<g id="node3" class="node">
<title>CrisisDetailComponent</title>
<polygon fill="#ffffb3" stroke="black" points="524.21,-122 375.79,-122 375.79,-86 524.21,-86 524.21,-122"/>
<text text-anchor="middle" x="450" y="-99.8" font-family="Times,serif" font-size="14.00">CrisisDetailComponent</text>
</g>
<!-- CrisisDetailComponent&#45;&gt;CrisisCenterModule -->
<g id="edge3" class="edge">
<title>CrisisDetailComponent&#45;&gt;CrisisCenterModule</title>
<path fill="none" stroke="black" d="M450,-122.11C450,-122.11 450,-140.99 450,-140.99"/>
<polygon fill="black" stroke="black" points="446.5,-140.99 450,-150.99 453.5,-140.99 446.5,-140.99"/>
</g>
<!-- CrisisListComponent -->
<g id="node4" class="node">
<title>CrisisListComponent</title>
<polygon fill="#ffffb3" stroke="black" points="357.78,-122 222.22,-122 222.22,-86 357.78,-86 357.78,-122"/>
<text text-anchor="middle" x="290" y="-99.8" font-family="Times,serif" font-size="14.00">CrisisListComponent</text>
</g>
<!-- CrisisListComponent&#45;&gt;CrisisCenterModule -->
<g id="edge4" class="edge">
<title>CrisisListComponent&#45;&gt;CrisisCenterModule</title>
<path fill="none" stroke="black" d="M290,-122.02C290,-139.37 290,-163 290,-163 290,-163 375.38,-163 375.38,-163"/>
<polygon fill="black" stroke="black" points="375.38,-166.5 385.38,-163 375.38,-159.5 375.38,-166.5"/>
</g>
<!-- CrisisCenterRoutingModule -->
<g id="node6" class="node">
<title>CrisisCenterRoutingModule</title>
<polygon fill="#8dd3c7" stroke="black" points="198.15,-122 195.15,-126 174.15,-126 171.15,-122 23.85,-122 23.85,-86 198.15,-86 198.15,-122"/>
<text text-anchor="middle" x="111" y="-99.8" font-family="Times,serif" font-size="14.00">CrisisCenterRoutingModule</text>
</g>
<!-- CrisisCenterRoutingModule&#45;&gt;CrisisCenterModule -->
<g id="edge5" class="edge">
<title>CrisisCenterRoutingModule&#45;&gt;CrisisCenterModule</title>
<path fill="none" stroke="black" d="M111,-122.28C111,-143.32 111,-175 111,-175 111,-175 375.44,-175 375.44,-175"/>
<polygon fill="black" stroke="black" points="375.44,-178.5 385.44,-175 375.44,-171.5 375.44,-178.5"/>
</g>
</g>
</svg>
