<?xml version="1.0" encoding="UTF-8" standalone="no"?>
<!DOCTYPE svg PUBLIC "-//W3C//DTD SVG 1.1//EN"
 "http://www.w3.org/Graphics/SVG/1.1/DTD/svg11.dtd">
<!-- Generated by graphviz version 2.47.0 (20210316.0004)
 -->
<!-- Title: dependencies Pages: 1 -->
<svg width="921pt" height="284pt"
 viewBox="0.00 0.00 921.00 284.00" xmlns="http://www.w3.org/2000/svg" xmlns:xlink="http://www.w3.org/1999/xlink">
<g id="graph0" class="graph" transform="scale(1 1) rotate(0) translate(4 280)">
<title>dependencies</title>
<polygon fill="white" stroke="transparent" points="-4,4 -4,-280 917,-280 917,4 -4,4"/>
<text text-anchor="start" x="435.51" y="-42.4" font-family="Times-12" font-weight="bold" font-size="14.00">Legend</text>
<polygon fill="#ffffb3" stroke="transparent" points="222.5,-10 222.5,-30 242.5,-30 242.5,-10 222.5,-10"/>
<text text-anchor="start" x="246.13" y="-15.4" font-family="Times-12" font-size="14.00"> &#160;Declarations</text>
<polygon fill="#8dd3c7" stroke="transparent" points="335.5,-10 335.5,-30 355.5,-30 355.5,-10 335.5,-10"/>
<text text-anchor="start" x="359.23" y="-15.4" font-family="Times-12" font-size="14.00"> &#160;Module</text>
<polygon fill="#80b1d3" stroke="transparent" points="421.5,-10 421.5,-30 441.5,-30 441.5,-10 421.5,-10"/>
<text text-anchor="start" x="445.28" y="-15.4" font-family="Times-12" font-size="14.00"> &#160;Bootstrap</text>
<polygon fill="#fdb462" stroke="transparent" points="518.5,-10 518.5,-30 538.5,-30 538.5,-10 518.5,-10"/>
<text text-anchor="start" x="542.17" y="-15.4" font-family="Times-12" font-size="14.00"> &#160;Providers</text>
<polygon fill="#fb8072" stroke="transparent" points="614.5,-10 614.5,-30 634.5,-30 634.5,-10 614.5,-10"/>
<text text-anchor="start" x="638.23" y="-15.4" font-family="Times-12" font-size="14.00"> &#160;Exports</text>
<g id="clust1" class="cluster">
<title>cluster_AppModule</title>
<polygon fill="none" stroke="black" stroke-dasharray="1,5" points="8,-70 8,-268 905,-268 905,-70 8,-70"/>
</g>
<g id="clust8" class="cluster">
<title>cluster_AppModule_bootstrap</title>
<polygon fill="none" stroke="black" points="462,-208 462,-260 586,-260 586,-208 462,-208"/>
</g>
<g id="clust6" class="cluster">
<title>cluster_AppModule_imports</title>
<polygon fill="none" stroke="black" points="530,-78 530,-130 897,-130 897,-78 530,-78"/>
</g>
<g id="clust2" class="cluster">
<title>cluster_AppModule_declarations</title>
<polygon fill="none" stroke="black" points="16,-78 16,-130 522,-130 522,-78 16,-78"/>
</g>
<!-- AppComponent -->
<g id="node1" class="node">
<title>AppComponent</title>
<polygon fill="#ffffb3" stroke="black" points="513.94,-122 408.06,-122 408.06,-86 513.94,-86 513.94,-122"/>
<text text-anchor="middle" x="461" y="-99.8" font-family="Times,serif" font-size="14.00">AppComponent</text>
</g>
<!-- AppModule -->
<g id="node4" class="node">
<title>AppModule</title>
<polygon fill="#8dd3c7" stroke="black" points="565.66,-187 562.66,-191 541.66,-191 538.66,-187 482.34,-187 482.34,-151 565.66,-151 565.66,-187"/>
<text text-anchor="middle" x="524" y="-164.8" font-family="Times,serif" font-size="14.00">AppModule</text>
</g>
<!-- AppComponent&#45;&gt;AppModule -->
<g id="edge1" class="edge">
<title>AppComponent&#45;&gt;AppModule</title>
<path fill="none" stroke="black" d="M497.95,-122.11C497.95,-122.11 497.95,-140.99 497.95,-140.99"/>
<polygon fill="black" stroke="black" points="494.45,-140.99 497.95,-150.99 501.45,-140.99 494.45,-140.99"/>
</g>
<!-- ComposeMessageComponent -->
<g id="node2" class="node">
<title>ComposeMessageComponent</title>
<polygon fill="#ffffb3" stroke="black" points="390.7,-122 207.3,-122 207.3,-86 390.7,-86 390.7,-122"/>
<text text-anchor="middle" x="299" y="-99.8" font-family="Times,serif" font-size="14.00">ComposeMessageComponent</text>
</g>
<!-- ComposeMessageComponent&#45;&gt;AppModule -->
<g id="edge2" class="edge">
<title>ComposeMessageComponent&#45;&gt;AppModule</title>
<path fill="none" stroke="black" d="M299,-122.02C299,-139.37 299,-163 299,-163 299,-163 472.21,-163 472.21,-163"/>
<polygon fill="black" stroke="black" points="472.21,-166.5 482.21,-163 472.21,-159.5 472.21,-166.5"/>
</g>
<!-- PageNotFoundComponent -->
<g id="node3" class="node">
<title>PageNotFoundComponent</title>
<polygon fill="#ffffb3" stroke="black" points="189.82,-122 24.18,-122 24.18,-86 189.82,-86 189.82,-122"/>
<text text-anchor="middle" x="107" y="-99.8" font-family="Times,serif" font-size="14.00">PageNotFoundComponent</text>
</g>
<!-- PageNotFoundComponent&#45;&gt;AppModule -->
<g id="edge3" class="edge">
<title>PageNotFoundComponent&#45;&gt;AppModule</title>
<path fill="none" stroke="black" d="M107,-122.28C107,-143.32 107,-175 107,-175 107,-175 472.11,-175 472.11,-175"/>
<polygon fill="black" stroke="black" points="472.11,-178.5 482.11,-175 472.11,-171.5 472.11,-178.5"/>
</g>
<!-- AppComponent  -->
<g id="node8" class="node">
<title>AppComponent </title>
<polygon fill="#80b1d3" stroke="black" points="578.44,-252 469.56,-252 469.56,-216 578.44,-216 578.44,-252"/>
<text text-anchor="middle" x="524" y="-229.8" font-family="Times,serif" font-size="14.00">AppComponent </text>
</g>
<!-- AppModule&#45;&gt;AppComponent  -->
<g id="edge7" class="edge">
<title>AppModule&#45;&gt;AppComponent </title>
<path fill="none" stroke="black" stroke-dasharray="1,5" d="M524,-187.11C524,-187.11 524,-205.99 524,-205.99"/>
<polygon fill="black" stroke="black" points="520.5,-205.99 524,-215.99 527.5,-205.99 520.5,-205.99"/>
</g>
<!-- AppRoutingModule -->
<g id="node5" class="node">
<title>AppRoutingModule</title>
<polygon fill="#8dd3c7" stroke="black" points="889.27,-122 886.27,-126 865.27,-126 862.27,-122 760.73,-122 760.73,-86 889.27,-86 889.27,-122"/>
<text text-anchor="middle" x="825" y="-99.8" font-family="Times,serif" font-size="14.00">AppRoutingModule</text>
</g>
<!-- AppRoutingModule&#45;&gt;AppModule -->
<g id="edge4" class="edge">
<title>AppRoutingModule&#45;&gt;AppModule</title>
<path fill="none" stroke="black" d="M825,-122.28C825,-143.32 825,-175 825,-175 825,-175 575.85,-175 575.85,-175"/>
<polygon fill="black" stroke="black" points="575.85,-171.5 565.85,-175 575.85,-178.5 575.85,-171.5"/>
</g>
<!-- AuthModule -->
<g id="node6" class="node">
<title>AuthModule</title>
<polygon fill="#8dd3c7" stroke="black" points="742.55,-122 739.55,-126 718.55,-126 715.55,-122 655.45,-122 655.45,-86 742.55,-86 742.55,-122"/>
<text text-anchor="middle" x="699" y="-99.8" font-family="Times,serif" font-size="14.00">AuthModule</text>
</g>
<!-- AuthModule&#45;&gt;AppModule -->
<g id="edge5" class="edge">
<title>AuthModule&#45;&gt;AppModule</title>
<path fill="none" stroke="black" d="M699,-122.02C699,-139.37 699,-163 699,-163 699,-163 575.92,-163 575.92,-163"/>
<polygon fill="black" stroke="black" points="575.92,-159.5 565.92,-163 575.92,-166.5 575.92,-159.5"/>
</g>
<!-- HeroesModule -->
<g id="node7" class="node">
<title>HeroesModule</title>
<polygon fill="#8dd3c7" stroke="black" points="637.69,-122 634.69,-126 613.69,-126 610.69,-122 538.31,-122 538.31,-86 637.69,-86 637.69,-122"/>
<text text-anchor="middle" x="588" y="-99.8" font-family="Times,serif" font-size="14.00">HeroesModule</text>
</g>
<!-- HeroesModule&#45;&gt;AppModule -->
<g id="edge6" class="edge">
<title>HeroesModule&#45;&gt;AppModule</title>
<path fill="none" stroke="black" d="M552.12,-122.11C552.12,-122.11 552.12,-140.99 552.12,-140.99"/>
<polygon fill="black" stroke="black" points="548.62,-140.99 552.12,-150.99 555.62,-140.99 548.62,-140.99"/>
</g>
</g>
</svg>
